<svg width="338" height="309" xmlns="http://www.w3.org/2000/svg">

 <metadata id="imagebot_33">image/svg+xml</metadata>
 <g id="imagebot_2" label="Capa 1">
  <path transform="translate(-4.65085, -18.2874) matrix(1, 0, 0, 1, 0, -698.031)" label="Capa 1" fill="#5a8d3e" fill-rule="evenodd" stroke="#000000" stroke-width="1.82855px" id="imagebot_32" d="M22.37737,944.77722C15.32093,936.97333 11.97801,926.2218 9.31631,916.04291C9.2473,915.77899 9.17864,915.51453 9.1104,915.24957C6.61,905.54047 4.65085,895.13531 6.7041,885.34943C8.6841,875.91272 16.2499,868.57507 20.41821,859.88037C27.38835,845.34137 30.28685,829.69047 39.26072,815.33102C39.26072,815.33102 39.76096,814.54179 40.0098,814.16667C44.52034,807.36717 50.72812,801.76657 56.98916,796.53423C59.39818,794.52102 64.82581,791.30982 64.82581,791.30982C64.82581,791.30982 72.64036,778.67036 76.58076,772.37128C82.85849,762.33575 87.61586,751.1432 95.51928,742.33084C101.82952,735.29491 109.34569,729.07364 117.72309,724.69841C125.78108,720.49002 134.76858,717.3688 143.84519,716.86179C153.56519,716.31883 163.36159,718.95526 172.57953,722.0862C180.69182,724.84161 189.04584,728.13479 195.43637,733.84115C197.19269,735.40944 199.35469,739.71864 199.35469,739.71864C199.35469,739.71864 221.99893,727.06721 233.80322,724.69841C245.60752,722.32962 260.15399,721.44152 268.5783,724.69841C277.00259,727.95532 278.47963,732.31203 282.94545,737.75948C287.41127,743.20693 292.66747,750.01157 294.7004,757.35106C295.28147,759.44892 294.7004,763.8816 294.7004,763.8816C294.7004,763.8816 316.65358,774.56569 325.39387,782.82013C329.88312,787.05982 332.79565,793.44517 336.00597,798.0036C338.24315,801.18023 342.19196,802.88294 342.79673,806.12191C343.08247,807.65228 342.43874,809.67821 341.68005,811.38975C340.83301,813.30067 338.45735,813.20351 338.45735,813.20351C334.82322,816.86742 335.8427,826.57467 335.8427,826.57467C335.8427,826.57467 335.24943,832.30929 332.65568,834.6842C330.11606,837.00952 326.97032,836.15742 324.49352,838.5721C322.52197,842.28127 321.24892,843.40615 319.51639,845.51319C314.56996,851.5288 298.61871,855.96204 298.61871,855.96204C298.61871,855.96204 298.11152,859.09653 298.61871,860.53341C299.49841,863.02558 300.9586,865.18059 302.68568,867.18556C306.62383,871.75734 311.94963,875.54888 314.94502,880.77805C319.22541,888.25053 324.08776,904.941 324.08776,904.941C324.08776,904.941 305.91876,939.91688 291.43514,952.61386C278.4045,964.03713 261.50117,970.62355 245.06839,976.12376C233.32555,980.05417 220.8392,981.64272 208.49743,982.65429C192.00728,984.00578 175.37077,983.15222 158.86541,982.00127C127.78239,979.83369 95.70586,980.05621 66.13191,970.24626C50.81032,965.16395 36.46218,958.39925 23.97358,946.41565C23.40434,945.86942 22.87079,945.32291 22.37737,944.77723z"/>
  <path transform="translate(-4.65085, -18.2874) matrix(1, 0, 0, 1, 0, -698.031)" label="Capa 1" fill="#5a8d3e" fill-rule="evenodd" stroke="#000000" stroke-width="1.09713" stroke-miterlimit="4" id="imagebot_31" d="M33.3985,957.016 L46.4596,977.26 C46.4596,977.26 82.8587,988.353 101.316,992.933 C116.648,996.738 131.955,1001.26 147.683,1002.73 C167.627,1004.59 188.215,1005.79 207.764,1001.42 C216.133,999.552 231.274,990.974 231.274,990.974 L243.832,976.452 C199.606,987.806 132.236,985.579 33.3986,957.016 L33.3985,957.016 z"/>
  <path transform="translate(-4.65085, -18.2874) matrix(1, 0, 0, 1, 0, -698.031)" label="Capa 1" fill="#9f5935" stroke="#000000" stroke-width="1.82855" id="imagebot_30" d="M110.712,929.615 C107.834,926.92 108.893,923.942 109.406,921.125 C110.121,917.193 112.46,913.504 115.283,910.676 C118.628,907.325 123.1,904.995 127.651,903.69 C138.556,900.565 150.593,900.991 161.65,902.186 C174.139,903.536 184.534,910.182 196.915,912.309 C212.189,914.932 244.588,916.553 244.588,916.553 C244.588,916.553 263.364,916.943 272.669,915.9 C289.003,914.07 307.448,915.413 320.995,906.105 C323.334,904.497 323.815,904.265 325.777,904.225 C328.707,904.164 328.845,907.705 329.346,911.524 C329.954,916.158 327.898,918.166 324.448,921.319 C322.359,923.229 321.813,923.236 319.266,924.469 C317.249,925.446 313.158,926.349 313.158,926.349 C313.158,926.349 314.027,933.732 312.403,936.838 C310.588,940.306 306.84,942.62 303.263,944.209 C294.834,947.955 275.934,948.553 275.934,948.553 C275.934,948.553 214.035,946.569 181.894,941.369 C172.617,939.869 163.774,936.143 154.466,934.839 C140.008,932.813 121.37,939.592 110.712,929.615 L110.712,929.615 z"/>
  <path transform="translate(-4.65085, -18.2874) matrix(1, 0, 0, 1, 0, -698.031)" label="Capa 1" fill="#ffffff" stroke="#000000" stroke-width="1.82855" id="imagebot_29" d="M230.96172,825.0484C232.11,821.44065 234.88614,819.6478 237.77294,817.19816C242.93301,812.81951 252.7602,810.02698 260.75799,807.98581C270.46866,805.50749 280.60182,804.89939 290.61271,804.42925C300.89036,803.94657 311.45087,802.85188 321.47021,805.19194C327.71857,806.65129 334.69908,808.46875 338.93374,813.28947C340.68719,815.28556 341.98984,817.87043 341.32666,820.89239C340.67591,823.85772 339.22046,824.63426 336.05583,826.78345C332.89118,828.93263 326.31804,831.04821 321.93198,831.97507C312.53158,834.08192 303.37047,837.72374 293.76351,838.43996C279.75374,839.48443 265.28498,838.26315 251.27992,836.01563C247.13565,835.35054 242.77943,834.81059 239.11523,832.76337C235.84881,830.93838 230.34765,826.97762 230.96172,825.0484z"/>
  <path transform="translate(-4.65085, -18.2874) matrix(1, 0, 0, 1, 0, -698.031)" label="Capa 1" fill="#ffffff" stroke="#000000" stroke-width="1.82855" id="imagebot_28" d="M125.67632,821.35413C125.67632,821.35413 150.33145,835.8529 164.00389,839.36348C173.41546,841.78003 183.42263,842.12981 193.09592,841.21059C207.18195,839.87203 220.159,838.97801 229.92851,828.74258C234.59752,823.85092 237.90721,818.95162 236.39342,812.58034C235.971,810.8025 235.98045,807.69206 234.13335,807.23028C232.28622,806.7685 210.9719,805.14743 197.7137,807.03902C181.26128,809.38633 166.10808,817.86179 149.68877,820.43056C141.77496,821.66868 125.67632,821.35413 125.67632,821.35413z"/>
  <path transform="translate(-4.65085, -18.2874) matrix(1, 0, 0, 1, 0, -698.031)" label="Capa 1" fill="#000000" stroke="#000000" stroke-width="1.09713" stroke-miterlimit="4" id="imagebot_27" d="M319.54611,830.86591C319.54611,831.72292 301.32032,838.4947 284.60777,838.0495C273.14661,837.74419 270.0189,839.21102 269.16999,836.52412C268.95071,835.83003 268.66797,833.88911 268.68721,832.71301C268.81447,824.92975 275.08616,814.3085 282.36173,808.62314C285.98177,805.79432 291.3572,805.50453 295.63725,804.91867C309.93081,802.96211 319.54611,816.43538 319.54611,830.86591z"/>
  <path transform="translate(-4.65085, -18.2874) matrix(1, 0, 0, 1, 0, -698.031)" label="Capa 1" fill="#0446fc" stroke="#000000" stroke-width="1.82855" id="imagebot_26" d="M21.8943,968.014 L22.1212,958.801 C22.1212,958.801 25.3901,957.151 27.1502,956.702 C29.6451,956.065 34.8331,955.896 34.8331,955.896 C34.8331,955.896 40.746,961.528 53.4587,969.745 C66.1714,977.962 99.3091,985.886 123.009,990.969 C141.892,995.019 157.762,998.43 177.065,998.096 C192.81,997.019 208.483,995.427 221.151,990.547 C226.431,988.461 239.213,982.328 239.213,982.328 C239.213,982.328 251.43,987.279 253.379,988.308 C266.492,995.231 267.272,999.99 277.967,1009.49 C283.263,1014.19 292.661,1024.83 292.661,1024.83 L21.2857,1022.01 L21.8943,968.014 z"/>
  <path transform="translate(-4.65085, -18.2874) matrix(1, 0, 0, 1, 0, -698.031)" label="Capa 1" fill="none" stroke="#000000" stroke-width="1.09713" stroke-linecap="round" stroke-miterlimit="4" id="imagebot_25" d="M89.37831,931.23346C89.37831,931.23346 92.00838,938.87725 95.04646,942.13429C99.39066,947.18723 107.36211,949.66881 107.36211,949.66881"/>
  <path transform="translate(-4.65085, -18.2874) matrix(1, 0, 0, 1, 0, -698.031)" label="Capa 1" fill="#000000" stroke="#000000" stroke-width="1.09713" stroke-miterlimit="4" id="imagebot_24" d="M214.73112,837.39648C214.73112,837.39648 199.44407,841.15151 185.01722,841.15153C170.59038,841.15153 162.19828,838.26232 162.19828,838.26232C162.26958,823.83701 178.34969,810.16643 190.40491,810.2948C197.21577,810.3674 204.05,813.08383 208.49702,817.36531C213.4692,822.15239 213.90667,829.82566 214.73113,837.39648z"/>
  <ellipse transform="translate(-4.65085, -18.2874) matrix(1, 0, 0, 1, 0, -698.031)" label="Capa 1" fill="#ffffff" stroke-width="0.6" stroke-miterlimit="4" ry="5.07956" rx="4.156" cy="822.57623" cx="180.90324" id="imagebot_23"/>
  <circle transform="translate(-4.65085, -18.2874) matrix(1, 0, 0, 1, 0, -698.031)" label="Capa 1" fill="#ffffff" stroke-width="0.6" stroke-miterlimit="4" r="7.15756" cy="829.89709" cx="196.0975" id="imagebot_22"/>
  <ellipse transform="translate(-4.65085, -18.2874) matrix(1, 0, 0, 1, 0, -698.031)" label="Capa 1" fill="#ffffff" stroke-width="0.6" stroke-miterlimit="4" id="imagebot_21" cx="180.29208" cy="834.28394" rx="3.3374" ry="3.23245"/>
  <ellipse transform="translate(-4.65085, -18.2874) matrix(1, 0, 0, 1, 0, -698.031)" label="Capa 1" fill="#ffffff" stroke-width="0.6" stroke-miterlimit="4" id="imagebot_20" cx="284.74265" cy="819.42792" rx="3.08737" ry="3.77345"/>
  <circle transform="translate(-4.65085, -18.2874) matrix(1, 0, 0, 1, 0, -698.031)" label="Capa 1" fill="#ffffff" stroke-width="0.6" stroke-miterlimit="4" id="imagebot_19" cx="299.8479" cy="824.13654" r="6.01472"/>
  <ellipse transform="translate(-4.65085, -18.2874) matrix(1, 0, 0, 1, 0, -698.031)" label="Capa 1" fill="#ffffff" stroke-width="0.6" stroke-miterlimit="4" ry="2.44975" rx="2.52928" cy="830.26886" cx="285.30078" id="imagebot_18"/>
  <path transform="translate(-4.65085, -18.2874) matrix(1, 0, 0, 1, 0, -698.031)" label="Capa 1" fill="none" stroke="#000000" stroke-width="1.09713" stroke-linecap="round" stroke-miterlimit="4" id="imagebot_17" d="M313.45584,925.12653C306.05572,928.82141 286.56063,932.14924 273.01609,932.41564C250.78993,932.8528 229.69267,932.07586 207.54756,930.12997C193.77638,928.91991 176.24367,919.51036 162.48012,918.21654C151.84053,917.21638 129.44151,920.52883 129.44151,920.52883"/>
  <path transform="translate(-4.65085, -18.2874) matrix(1, 0, 0, 1, 0, -698.031)" label="Capa 1" fill="none" stroke="#000000" stroke-width="1.09713" stroke-linecap="round" stroke-miterlimit="4" id="imagebot_16" d="M65.59155,790.77948C60.64867,798.78815 59.9072,811.7486 57.35196,822.1449"/>
  <path transform="translate(-4.65085, -18.2874) matrix(1, 0, 0, 1, 0, -698.031)" label="Capa 1" fill="none" stroke="#000000" stroke-width="1.09713" stroke-miterlimit="4" id="imagebot_15" d="M199.12547,740.17902C202.937,746.4744 205.06598,753.91451 202.15983,765.07086C209.94942,770.11224 207.19375,773.04227 211.26918,778.90901"/>
  <path transform="translate(-4.65085, -18.2874) matrix(1, 0, 0, 1, 0, -698.031)" label="Capa 1" fill="none" stroke="#000000" stroke-width="1.09713" stroke-miterlimit="4" id="imagebot_14" d="M295.46478,764.58105C292.63773,763.59404 285.94118,760.97446 280.93188,760.512C254.68341,758.08877 230.92039,758.49098 201.67005,764.90759"/>
  <path transform="translate(-4.65085, -18.2874) matrix(1, 0, 0, 1, 0, -698.031)" label="Capa 1" fill="none" stroke="#000000" stroke-width="1.09713" stroke-miterlimit="4" id="imagebot_13" d="M202.0304,764.9035C188.79324,758.87571 183.48847,752.62847 160.24681,752.73501C138.87884,752.83301 116.95467,768.97879 110.14222,774.19977"/>
  <path transform="translate(-4.65085, -18.2874) matrix(1, 0, 0, 1, 0, -698.031)" label="Capa 1" fill="none" stroke="#000000" stroke-width="1.09713" stroke-miterlimit="4" id="imagebot_12" d="M298.97495,855.45105C284.98213,858.0541 274.03082,860.80369 255.31886,858.56467"/>
  <path transform="translate(-4.65085, -18.2874) matrix(1, 0, 0, 1, 0, -698.031)" label="Capa 1" fill="none" stroke="#000000" stroke-width="1.09713" stroke-miterlimit="4" id="imagebot_11" d="M243.13892,852.25342C246.57383,854.3359 257.66549,857.72061 263.54683,866.29407"/>
  <path transform="translate(-4.65085, -18.2874) matrix(1, 0, 0, 1, 0, -698.031)" label="Capa 1" fill="none" stroke="#000000" stroke-width="1.09713" stroke-miterlimit="4" id="imagebot_10" d="M232.03703,826.86597C232.03703,826.86597 233.94517,827.20167 234.89414,828.66188C237.23067,832.25724 231.91159,837.01557 228.69013,839.84543C220.18547,845.39559 210.47594,846.15817 201.54468,847.13554C185.75244,848.8637 169.39674,849.65752 153.99719,845.88614C144.11554,843.46612 126.56898,832.49855 126.56898,832.49855"/>
  <path transform="translate(-4.65085, -18.2874) matrix(1, 0, 0, 1, 0, -698.031)" label="Capa 1" fill="#5a8d3e" stroke-width="0.6" stroke-miterlimit="4" id="imagebot_9" d="M230.71051,829.82513C231.54374,828.76897 231.62133,828.34902 232.81253,828.27412C233.79134,828.21272 234.73246,829.49341 234.95536,830.49857C235.11883,831.23575 234.65502,832.02373 234.22066,832.64139C233.16281,834.14568 229.91459,836.09032 229.91459,836.09032C229.91459,836.09032 229.87729,830.8813 230.71051,829.82513z"/>
  <path transform="translate(-4.65085, -18.2874) matrix(1, 0, 0, 1, 0, -698.031)" label="Capa 1" fill="none" stroke="#000000" stroke-width="1.09713" stroke-miterlimit="4" id="imagebot_8" d="M126.3649,821.0293C126.3649,821.0293 117.35015,820.9902 113.50791,818.13138C111.68456,816.77475 110.12565,816.0248 110.89571,813.88653C111.69352,811.6712 114.47858,810.49639 116.77319,809.96822C121.4834,808.88405 125.71417,810.04442 131.30362,808.33559C136.89305,806.62679 144.10841,801.8855 149.42583,798.86633C154.74326,795.84718 155.10618,793.23515 163.26119,790.35923C171.4162,787.4833 183.38077,789.2236 183.38077,789.2236"/>
  <path transform="translate(-4.65085, -18.2874) matrix(1, 0, 0, 1, 0, -698.031)" label="Capa 1" fill="none" stroke="#000000" stroke-width="1.09713" stroke-miterlimit="4" id="imagebot_7" d="M126.56898,801.47858C126.56898,801.47858 135.52455,798.61971 139.73526,796.56766C146.65002,793.19786 152.33837,787.53543 159.40948,784.5074C166.57665,781.43826 174.28854,779.53449 182.01768,778.51072C190.23707,777.42201 201.23786,777.83171 206.89102,778.40848C212.30343,778.97621 220.9205,780.1692 225.1799,781.75637C229.4393,783.34354 230.17765,786.89157 229.42474,788.93995C228.67184,790.98833 226.66483,790.19462 224.935,790.49094"/>
  <path transform="translate(-4.65085, -18.2874) matrix(1, 0, 0, 1, 0, -698.031)" label="Capa 1" fill="none" stroke="#000000" stroke-width="1.09713" stroke-linecap="round" stroke-miterlimit="4" id="imagebot_6" d="M235.22064,807.19275C235.22064,807.19275 236.56592,805.04279 236.52673,803.84585C236.40496,800.1229 233.61362,796.60747 231.79213,793.72354C229.42939,789.98268 224.15118,790.85365 221.99634,789.80522"/>
  <path transform="translate(-4.65085, -18.2874) matrix(1, 0, 0, 1, 0, -698.031)" label="Capa 1" fill="none" stroke="#000000" stroke-width="1.09713" stroke-linecap="round" stroke-miterlimit="4" id="imagebot_5" d="M233.92365,796.22107C233.92365,796.22107 252.07081,790.56479 261.7509,789.07056C272.95659,787.34082 284.42097,786.05081 295.70966,787.1114C307.32645,788.2028 317.97392,791.94337 329.09119,795.48563C333.46893,796.8805 338.8935,800.88562 338.8935,800.88562"/>
  <path transform="translate(-4.65085, -18.2874) matrix(1, 0, 0, 1, 0, -698.031)" label="Capa 1" fill="none" stroke="#000000" stroke-width="1.09713" stroke-linecap="round" stroke-miterlimit="4" id="imagebot_4" d="M240.46387,784.94458C240.46387,784.94458 263.57176,778.41367 275.46502,777.64215C288.31867,776.80833 301.59479,777.09618 313.99514,780.58088C319.75918,782.20066 329.99493,788.74403 329.99493,788.74403"/>
  <path transform="translate(-4.65085, -18.2874) matrix(1, 0, 0, 1, 0, -698.031)" label="Capa 1" fill="none" stroke="#000000" stroke-width="1.09713" stroke-linecap="round" stroke-miterlimit="4" id="imagebot_3" d="M176.88686,870.59009C212.58944,858.56359 215.79877,849.04948 222.87387,842.927"/>
  <title>Capa 1</title>
 </g>
</svg>